{"title":"The Heat 2013 TS x264-THC","uid":8698352,"size":1361108814,"categoryP":"video","categoryS":"movies","magnet":"?xt=urn:btih:6a7d88faa8f8bad6842d2085cc6906664f1bac4d&amp;dn=The+Heat+2013+TS+x264-THC&amp;tr=udp%3A%2F%2Ftracker.openbittorrent.com%3A80&amp;tr=udp%3A%2F%2Fopen.demonii.com%3A1337&amp;tr=udp%3A%2F%2Ftracker.coppersurfer.tk%3A6969&amp;tr=udp%3A%2F%2Fexodus.desync.com%3A6969","seeders":2,"leechers":0,"uploader":"hungry4momoney","files":5,"time":1374006237,"description":"An uptight FBI Special Agent is paired with a foul-mouthed Boston cop to take down a ruthless drug lord.\n\n\nFormat                           : MPEG-4\n Format profile                   : Base Media\n Codec ID                         : isom\n File size                        : 1.24 GiB\n Duration                         : 1h 49mn\n Overall bit rate                 : 1 615 Kbps\n Encoded date                     : UTC 2013-07-07 10:39:11\n Tagged date                      : UTC 2013-07-07 10:39:11\n\n Video\n ID                               : 1\n Format                           : AVC\n Format/Info                      : Advanced Video Codec\n Format profile                   : &lt;a class=&quot;__cf_email__&quot; href=&quot;/cdn-cgi/l/email-protection&quot; data-cfemail=&quot;6129080609212d524f51&quot;&gt;[email&amp;#160;protected]&lt;/a&gt;&lt;script cf-hash='f9e31' type=&quot;text/javascript&quot;&gt;\n/* &lt;![CDATA[ */!function(){try{var t=&quot;currentScript&quot;in document?document.currentScript:function(){for(var t=document.getElementsByTagName(&quot;script&quot;),e=t.length;e--;)if(t[e].getAttribute(&quot;cf-hash&quot;))return t[e]}();if(t&amp;&amp;t.previousSibling){var e,r,n,i,c=t.previousSibling,a=c.getAttribute(&quot;data-cfemail&quot;);if(a){for(e=&quot;&quot;,r=parseInt(a.substr(0,2),16),n=2;a.length-n;n+=2)i=parseInt(a.substr(n,2),16)^r,e+=String.fromCharCode(i);e=document.createTextNode(e),c.parentNode.replaceChild(e,c)}}}catch(u){}}();/* ]]&gt; */&lt;/script&gt;\n Format settings, CABAC           : Yes\n Format settings, ReFrames        : 5 frames\n Format settings, GOP             : M=1, N=32\n Codec ID                         : avc1\n Codec ID/Info                    : Advanced Video Coding\n Duration                         : 1h 49mn\n Bit rate mode                    : Variable\n Bit rate                         : 1 421 Kbps\n Maximum bit rate                 : 4 669 Kbps\n Width                            : 720 pixels\n Height                           : 304 pixels\n Display aspect ratio             : 2.35:1\n Frame rate mode                  : Constant\n Frame rate                       : 23.976 fps\n Color space                      : YUV\n Chroma subsampling               : 4:2:0\n Bit depth                        : 8 bits\n Scan type                        : Progressive\n Bits/(Pixel*Frame)               : 0.271\n Stream size                      : 1.09 GiB (88%)\n Title                            : 264#trackID=1:fps=&lt;a class=&quot;__cf_email__&quot; href=&quot;/cdn-cgi/l/email-protection&quot; data-cfemail=&quot;c0f2f3eef9f7f68087908183f0eef5eef1ed848596edb2a5b6f4f2f8f3&quot;&gt;[email&amp;#160;protected]&lt;/a&gt;&lt;script cf-hash='f9e31' type=&quot;text/javascript&quot;&gt;\n/* &lt;![CDATA[ */!function(){try{var t=&quot;currentScript&quot;in document?document.currentScript:function(){for(var t=document.getElementsByTagName(&quot;script&quot;),e=t.length;e--;)if(t[e].getAttribute(&quot;cf-hash&quot;))return t[e]}();if(t&amp;&amp;t.previousSibling){var e,r,n,i,c=t.previousSibling,a=c.getAttribute(&quot;data-cfemail&quot;);if(a){for(e=&quot;&quot;,r=parseInt(a.substr(0,2),16),n=2;a.length-n;n+=2)i=parseInt(a.substr(n,2),16)^r,e+=String.fromCharCode(i);e=document.createTextNode(e),c.parentNode.replaceChild(e,c)}}}catch(u){}}();/* ]]&gt; */&lt;/script&gt;\n Writing library                  : x264 core 133 r2334 a3ac64b\n Encoding settings                : cabac=1 / ref=5 / deblock=1:-1:-1 / analyse=0x3:0x133 / me=umh / subme=7 / psy=1 / psy_rd=1.10:0.15 / mixed_ref=1 / me_range=16 / chroma_me=1 / trellis=1 / 8x8dct=1 / cqm=0 / deadzone=21,11 / fast_pskip=1 / chroma_qp_offset=-5 / threads=6 / lookahead_threads=1 / sliced_threads=0 / nr=0 / decimate=1 / interlaced=0 / bluray_compat=0 / constrained_intra=0 / bframes=3 / b_pyramid=2 / b_adapt=1 / b_bias=0 / direct=1 / weightb=1 / open_gop=0 / weightp=2 / keyint=240 / keyint_min=23 / scenecut=40 / intra_refresh=0 / rc_lookahead=80 / rc=crf / mbtree=1 / crf=17.0 / qcomp=0.60 / qpmin=0 / qpmax=69 / qpstep=4 / ip_ratio=1.40 / aq=1:1.00\n Encoded date                     : UTC 2013-07-07 10:39:11\n Tagged date                      : UTC 2013-07-07 10:40:21\n\n Audio\n ID                               : 2\n Format                           : AC-3\n Format/Info                      : Audio Coding 3\n Mode extension                   : CM (complete main)\n Codec ID                         : ac-3\n Duration                         : 1h 49mn\n Bit rate mode                    : Constant\n Bit rate                         : 192 Kbps\n Channel(s)                       : 2 channels\n Channel positions                : Front: L R\n Sampling rate                    : 48.0 KHz\n Bit depth                        : 16 bits\n Stream size                      : 151 MiB (12%)\n Title                            : ac3#trackID=&lt;a class=&quot;__cf_email__&quot; href=&quot;/cdn-cgi/l/email-protection&quot; data-cfemail=&quot;b382f3f4e3f2f0839d869d829ef7f6e59ec1d6c587818b80&quot;&gt;[email&amp;#160;protected]&lt;/a&gt;&lt;script cf-hash='f9e31' type=&quot;text/javascript&quot;&gt;\n/* &lt;![CDATA[ */!function(){try{var t=&quot;currentScript&quot;in document?document.currentScript:function(){for(var t=document.getElementsByTagName(&quot;script&quot;),e=t.length;e--;)if(t[e].getAttribute(&quot;cf-hash&quot;))return t[e]}();if(t&amp;&amp;t.previousSibling){var e,r,n,i,c=t.previousSibling,a=c.getAttribute(&quot;data-cfemail&quot;);if(a){for(e=&quot;&quot;,r=parseInt(a.substr(0,2),16),n=2;a.length-n;n+=2)i=parseInt(a.substr(n,2),16)^r,e+=String.fromCharCode(i);e=document.createTextNode(e),c.parentNode.replaceChild(e,c)}}}catch(u){}}();/* ]]&gt; */&lt;/script&gt;\n Encoded date                     : UTC 2013-07-07 10:39:55\n Tagged date                      : UTC 2013-07-07 10:40:21\n\n Workdone:\n\n We got theses files from a friend...So thank them, as well as us for this release. Source was very nice... Had some movements in 2 place that we saw. The very beginning which we fix by rotating and cutting and the other was a very very small movement which you will probably wont even notice. Did the usual TLC and sync a friend's line to our release\n\n\nsame as others","torrent":{"xt":"urn:btih:6a7d88faa8f8bad6842d2085cc6906664f1bac4d","amp;dn":"The+Heat+2013+TS+x264-THC","amp;tr":["udp%3A%2F%2Ftracker.openbittorrent.com%3A80","udp%3A%2F%2Fopen.demonii.com%3A1337","udp%3A%2F%2Ftracker.coppersurfer.tk%3A6969","udp%3A%2F%2Fexodus.desync.com%3A6969"],"infoHash":"6a7d88faa8f8bad6842d2085cc6906664f1bac4d","infoHashBuffer":{"type":"Buffer","data":[106,125,136,250,168,248,186,214,132,45,32,133,204,105,6,102,79,27,172,77]},"announce":[],"urlList":[]}}